# xmcd CD database file
#
# Track frame offsets:
#	150
#	15302
#	34320
#	48960
#	65342
#	83695
#	100297
#	112615
#	127277
#	144800
#
# Disc length: 2229 seconds
#
# Revision: 0
# Processed by: cddbd v1.5.1PL0 Copyright (c) Steve Scherf et al.
# Submitted via: CDex 1.51
#
DISCID=7608b30a
DTITLE=Chet Baker - Introduces Johnny Pace
DYEAR=1958
DGENRE=Jazz
TTITLE0=All Or Nothing At All
TTITLE1=Crazy, She Calls Me
TTITLE2=The Way You Look Tonight
TTITLE3=This Is It Always
TTITLE4=When The Sun Comes Out
TTITLE5=What Is There T Say
TTITLE6=Everything I've Got Belongs To You
TTITLE7=We Could Make Such Beautiful Music
TTITLE8=It Might As Well Be Spring
TTITLE9=Yesterdays
EXTD=YEAR: 1958
EXTT0=
EXTT1=
EXTT2=
EXTT3=
EXTT4=
EXTT5=
EXTT6=
EXTT7=
EXTT8=
EXTT9=
PLAYORDER=
